<?xml version="1.0" encoding="UTF-8" standalone="no"?>
<!DOCTYPE svg PUBLIC "-//W3C//DTD SVG 1.1//EN"
 "http://www.w3.org/Graphics/SVG/1.1/DTD/svg11.dtd">
<!-- Generated by graphviz version 8.0.5 (0)
 -->
<!-- Title: Pacbio Nanopore Pipeline Pages: 1 -->
<svg width="2201pt" height="424pt"
 viewBox="0.00 0.00 2201.48 424.00" xmlns="http://www.w3.org/2000/svg" xmlns:xlink="http://www.w3.org/1999/xlink">
<g id="graph0" class="graph" transform="scale(1 1) rotate(0) translate(4 420)">
<title>Pacbio Nanopore Pipeline</title>
<polygon fill="white" stroke="none" points="-4,4 -4,-420 2197.48,-420 2197.48,4 -4,4"/>
<text text-anchor="middle" x="1096.74" y="-376" font-family="Times,serif" font-size="40.00">Pacbio Nanopore Pipeline</text>
<!-- Input_fasta -->
<g id="node1" class="node">
<title>Input_fasta</title>
<polygon fill="none" stroke="black" points="1057.94,-360 866.44,-360 866.44,-324 1057.94,-324 1057.94,-360"/>
<text text-anchor="middle" x="962.19" y="-336" font-family="Times,serif" font-size="20.00">INPUT: genome.fasta</text>
</g>
<!-- Step1a_trf -->
<g id="node5" class="node">
<title>Step1a_trf</title>
<polygon fill="none" stroke="black" points="1096.5,-288 713.88,-288 713.88,-208 1096.5,-208 1096.5,-288"/>
<text text-anchor="middle" x="905.19" y="-266" font-family="Times,serif" font-size="20.00">STEP 1a: TRF</text>
<text text-anchor="middle" x="905.19" y="-242" font-family="Times,serif" font-size="20.00">		Script: trf.sh</text>
<text text-anchor="middle" x="905.19" y="-218" font-family="Times,serif" font-size="20.00">		Output: genome.fasta.2.7.7.80.10.50.2000.dat</text>
</g>
<!-- Input_fasta&#45;&gt;Step1a_trf -->
<g id="edge1" class="edge">
<title>Input_fasta&#45;&gt;Step1a_trf</title>
<path fill="none" stroke="black" d="M951.47,-323.7C946.83,-316.2 941.13,-307.01 935.35,-297.68"/>
<polygon fill="black" stroke="black" points="937.81,-296.01 929.57,-289.35 931.86,-299.69 937.81,-296.01"/>
</g>
<!-- Step2_edta -->
<g id="node7" class="node">
<title>Step2_edta</title>
<polygon fill="none" stroke="black" points="1337.5,-288 1114.88,-288 1114.88,-208 1337.5,-208 1337.5,-288"/>
<text text-anchor="middle" x="1226.19" y="-266" font-family="Times,serif" font-size="20.00">STEP 2: EDTA</text>
<text text-anchor="middle" x="1226.19" y="-242" font-family="Times,serif" font-size="20.00">		Script: edta.sh</text>
<text text-anchor="middle" x="1226.19" y="-218" font-family="Times,serif" font-size="20.00">		Output: genome_edta.bed</text>
</g>
<!-- Input_fasta&#45;&gt;Step2_edta -->
<g id="edge3" class="edge">
<title>Input_fasta&#45;&gt;Step2_edta</title>
<path fill="none" stroke="black" d="M1012.16,-323.59C1038.44,-314.43 1071.91,-302.77 1104.53,-291.4"/>
<polygon fill="black" stroke="black" points="1105.33,-294.48 1113.62,-287.88 1103.02,-287.87 1105.33,-294.48"/>
</g>
<!-- Step3_mn -->
<g id="node8" class="node">
<title>Step3_mn</title>
<polygon fill="none" stroke="black" points="696.38,-288 0,-288 0,-208 696.38,-208 696.38,-288"/>
<text text-anchor="middle" x="348.19" y="-266" font-family="Times,serif" font-size="20.00">STEP 3: meth_nanopore</text>
<text text-anchor="middle" x="348.19" y="-242" font-family="Times,serif" font-size="20.00">		Script: meth_bed_nanopore.sh</text>
<text text-anchor="middle" x="348.19" y="-218" font-family="Times,serif" font-size="20.00">		Output: genome_meth.bed, fenome_nano_sorted.bam, genome_nano_sorted.bam.bai</text>
</g>
<!-- Input_fasta&#45;&gt;Step3_mn -->
<g id="edge4" class="edge">
<title>Input_fasta&#45;&gt;Step3_mn</title>
<path fill="none" stroke="black" d="M866.25,-326.62C800.46,-316.77 709.6,-303.15 622.32,-290.08"/>
<polygon fill="black" stroke="black" points="623.11,-286.5 612.7,-288.48 622.07,-293.43 623.11,-286.5"/>
</g>
<!-- Step4_mp -->
<g id="node9" class="node">
<title>Step4_mp</title>
<polygon fill="none" stroke="black" points="2193.48,-288 1464.9,-288 1464.9,-208 2193.48,-208 2193.48,-288"/>
<text text-anchor="middle" x="1829.19" y="-266" font-family="Times,serif" font-size="20.00">STEP 4: meth_pacbio</text>
<text text-anchor="middle" x="1829.19" y="-242" font-family="Times,serif" font-size="20.00">		Script: ccsmeth.sh</text>
<text text-anchor="middle" x="1829.19" y="-218" font-family="Times,serif" font-size="20.00">		Output: genome_meth.bed, genome_pacbio_sorted.bam, genome_pacbio_sorted.bam.bai</text>
</g>
<!-- Input_fasta&#45;&gt;Step4_mp -->
<g id="edge5" class="edge">
<title>Input_fasta&#45;&gt;Step4_mp</title>
<path fill="none" stroke="black" d="M1058.29,-330.8C1154.42,-320.6 1308.49,-304.25 1453.71,-288.84"/>
<polygon fill="black" stroke="black" points="1454.02,-292.22 1463.59,-287.69 1453.28,-285.26 1454.02,-292.22"/>
</g>
<!-- Input_gff3 -->
<g id="node2" class="node">
<title>Input_gff3</title>
<polygon fill="none" stroke="black" points="1319.73,-360 1132.65,-360 1132.65,-324 1319.73,-324 1319.73,-360"/>
<text text-anchor="middle" x="1226.19" y="-336" font-family="Times,serif" font-size="20.00">INPUT: genome.gff3</text>
</g>
<!-- Input_gff3&#45;&gt;Step2_edta -->
<g id="edge6" class="edge">
<title>Input_gff3&#45;&gt;Step2_edta</title>
<path fill="none" stroke="black" d="M1226.19,-323.7C1226.19,-316.59 1226.19,-307.96 1226.19,-299.13"/>
<polygon fill="black" stroke="black" points="1229.69,-299.35 1226.19,-289.35 1222.69,-299.35 1229.69,-299.35"/>
</g>
<!-- Input_fastq -->
<g id="node3" class="node">
<title>Input_fastq</title>
<polygon fill="none" stroke="black" points="486.71,-360 209.67,-360 209.67,-324 486.71,-324 486.71,-360"/>
<text text-anchor="middle" x="348.19" y="-336" font-family="Times,serif" font-size="20.00">INPUT: genome_nanopore.fastq</text>
</g>
<!-- Input_fastq&#45;&gt;Step3_mn -->
<g id="edge7" class="edge">
<title>Input_fastq&#45;&gt;Step3_mn</title>
<path fill="none" stroke="black" d="M348.19,-323.7C348.19,-316.59 348.19,-307.96 348.19,-299.13"/>
<polygon fill="black" stroke="black" points="351.69,-299.35 348.19,-289.35 344.69,-299.35 351.69,-299.35"/>
</g>
<!-- Input_bam -->
<g id="node4" class="node">
<title>Input_bam</title>
<polygon fill="none" stroke="black" points="1988.54,-360 1669.84,-360 1669.84,-324 1988.54,-324 1988.54,-360"/>
<text text-anchor="middle" x="1829.19" y="-336" font-family="Times,serif" font-size="20.00">INPUT: genome_pacbio.subread.bam</text>
</g>
<!-- Input_bam&#45;&gt;Step4_mp -->
<g id="edge8" class="edge">
<title>Input_bam&#45;&gt;Step4_mp</title>
<path fill="none" stroke="black" d="M1829.19,-323.7C1829.19,-316.59 1829.19,-307.96 1829.19,-299.13"/>
<polygon fill="black" stroke="black" points="1832.69,-299.35 1829.19,-289.35 1825.69,-299.35 1832.69,-299.35"/>
</g>
<!-- Step1b_trf -->
<g id="node6" class="node">
<title>Step1b_trf</title>
<polygon fill="none" stroke="black" points="1009.28,-172 801.1,-172 801.1,-92 1009.28,-92 1009.28,-172"/>
<text text-anchor="middle" x="905.19" y="-150" font-family="Times,serif" font-size="20.00">STEP 1b: TRF</text>
<text text-anchor="middle" x="905.19" y="-126" font-family="Times,serif" font-size="20.00">		Script: trf.sh</text>
<text text-anchor="middle" x="905.19" y="-102" font-family="Times,serif" font-size="20.00">		Output: genome_trf.bed</text>
</g>
<!-- Step1a_trf&#45;&gt;Step1b_trf -->
<g id="edge2" class="edge">
<title>Step1a_trf&#45;&gt;Step1b_trf</title>
<path fill="none" stroke="black" d="M905.19,-207.77C905.19,-199.89 905.19,-191.5 905.19,-183.3"/>
<polygon fill="black" stroke="black" points="908.69,-183.3 905.19,-173.3 901.69,-183.3 908.69,-183.3"/>
</g>
<!-- Step5_cn -->
<g id="node10" class="node">
<title>Step5_cn</title>
<polygon fill="none" stroke="black" points="1078.14,-56 732.24,-56 732.24,0 1078.14,0 1078.14,-56"/>
<text text-anchor="middle" x="905.19" y="-34" font-family="Times,serif" font-size="20.00">STEP 5: centromere_nanopore</text>
<text text-anchor="middle" x="905.19" y="-10" font-family="Times,serif" font-size="20.00">		Script: centromere_pipeline_nanopore.sh</text>
</g>
<!-- Step1b_trf&#45;&gt;Step5_cn -->
<g id="edge9" class="edge">
<title>Step1b_trf&#45;&gt;Step5_cn</title>
<path fill="none" stroke="red" d="M905.19,-91.56C905.19,-83.56 905.19,-75.16 905.19,-67.2"/>
<polygon fill="red" stroke="red" points="908.69,-67.34 905.19,-57.34 901.69,-67.34 908.69,-67.34"/>
</g>
<!-- Step2_edta&#45;&gt;Step5_cn -->
<g id="edge10" class="edge">
<title>Step2_edta&#45;&gt;Step5_cn</title>
<path fill="none" stroke="red" d="M1177.08,-207.51C1135.74,-174.99 1074.52,-128.46 1018.19,-92 1001.96,-81.5 983.88,-70.93 967.01,-61.54"/>
<polygon fill="red" stroke="red" points="969.24,-58.22 958.79,-56.45 965.85,-64.35 969.24,-58.22"/>
</g>
<!-- Step6_cp -->
<g id="node11" class="node">
<title>Step6_cp</title>
<polygon fill="none" stroke="black" points="1563.58,-160 1238.8,-160 1238.8,-104 1563.58,-104 1563.58,-160"/>
<text text-anchor="middle" x="1401.19" y="-138" font-family="Times,serif" font-size="20.00">STEP 6: centromere_pacbio</text>
<text text-anchor="middle" x="1401.19" y="-114" font-family="Times,serif" font-size="20.00">		Script: centromere_pipeline_pacbio.sh</text>
</g>
<!-- Step2_edta&#45;&gt;Step6_cp -->
<g id="edge13" class="edge">
<title>Step2_edta&#45;&gt;Step6_cp</title>
<path fill="none" stroke="blue" d="M1286.42,-207.77C1307.07,-194.31 1329.98,-179.39 1349.86,-166.44"/>
<polygon fill="blue" stroke="blue" points="1351.59,-168.84 1358.06,-160.44 1347.77,-162.97 1351.59,-168.84"/>
</g>
<!-- Step3_mn&#45;&gt;Step5_cn -->
<g id="edge11" class="edge">
<title>Step3_mn&#45;&gt;Step5_cn</title>
<path fill="none" stroke="red" d="M449.06,-207.52C556.96,-165.29 725.91,-99.17 825.08,-60.35"/>
<polygon fill="red" stroke="red" points="826.01,-63.36 834.04,-56.45 823.45,-56.84 826.01,-63.36"/>
</g>
<!-- Step4_mp&#45;&gt;Step6_cp -->
<g id="edge14" class="edge">
<title>Step4_mp&#45;&gt;Step6_cp</title>
<path fill="none" stroke="blue" d="M1681,-207.53C1626.43,-192.99 1565.53,-176.77 1514.52,-163.19"/>
<polygon fill="blue" stroke="blue" points="1515.69,-159.61 1505.12,-160.42 1513.89,-166.37 1515.69,-159.61"/>
</g>
<!-- Step1_trf -->
<g id="node12" class="node">
<title>Step1_trf</title>
<polygon fill="none" stroke="black" points="1446.41,-266 1355.97,-266 1355.97,-230 1446.41,-230 1446.41,-266"/>
<text text-anchor="middle" x="1401.19" y="-242" font-family="Times,serif" font-size="20.00">Step1_trf</text>
</g>
<!-- Step1_trf&#45;&gt;Step6_cp -->
<g id="edge12" class="edge">
<title>Step1_trf&#45;&gt;Step6_cp</title>
<path fill="none" stroke="blue" d="M1401.19,-229.69C1401.19,-214.2 1401.19,-190.96 1401.19,-171.15"/>
<polygon fill="blue" stroke="blue" points="1404.69,-171.26 1401.19,-161.26 1397.69,-171.26 1404.69,-171.26"/>
</g>
</g>
</svg>
