<?xml version="1.0" encoding="UTF-8" standalone="no"?>
<!DOCTYPE svg PUBLIC "-//W3C//DTD SVG 1.1//EN"
 "http://www.w3.org/Graphics/SVG/1.1/DTD/svg11.dtd">
<!-- Generated by graphviz version 8.0.5 (0)
 -->
<!-- Title: Pacbio Nanopore Pipeline Pages: 1 -->
<svg width="1745pt" height="772pt"
 viewBox="0.00 0.00 1745.41 772.00" xmlns="http://www.w3.org/2000/svg" xmlns:xlink="http://www.w3.org/1999/xlink">
<g id="graph0" class="graph" transform="scale(1 1) rotate(0) translate(4 768)">
<title>Pacbio Nanopore Pipeline</title>
<polygon fill="white" stroke="none" points="-4,4 -4,-768 1741.41,-768 1741.41,4 -4,4"/>
<text text-anchor="middle" x="868.71" y="-724" font-family="Times,serif" font-size="40.00">Pacbio Nanopore Pipeline</text>
<!-- Input_fasta -->
<g id="node1" class="node">
<title>Input_fasta</title>
<polygon fill="none" stroke="black" points="1040.96,-614 849.45,-614 849.45,-578 1040.96,-578 1040.96,-614"/>
<text text-anchor="middle" x="945.21" y="-590" font-family="Times,serif" font-size="20.00">INPUT: genome.fasta</text>
</g>
<!-- Step1a_trf -->
<g id="node5" class="node">
<title>Step1a_trf</title>
<polygon fill="none" stroke="black" points="1395.42,-520 968.99,-520 968.99,-440 1395.42,-440 1395.42,-520"/>
<text text-anchor="middle" x="1182.21" y="-498" font-family="Times,serif" font-size="20.00">STEP 1a: TRF &#45; process genome and create dat file</text>
<text text-anchor="middle" x="1182.21" y="-474" font-family="Times,serif" font-size="20.00">		Script: trf.sh</text>
<text text-anchor="middle" x="1182.21" y="-450" font-family="Times,serif" font-size="20.00">		Output: genome.fasta.2.7.7.80.10.50.2000.dat</text>
</g>
<!-- Input_fasta&#45;&gt;Step1a_trf -->
<g id="edge1" class="edge">
<title>Input_fasta&#45;&gt;Step1a_trf</title>
<path fill="none" stroke="black" d="M981.46,-577.56C1010.51,-563.59 1052.57,-543.36 1090.69,-525.02"/>
<polygon fill="black" stroke="black" points="1091.79,-527.89 1099.29,-520.4 1088.76,-521.58 1091.79,-527.89"/>
</g>
<!-- Step2a_edta -->
<g id="node7" class="node">
<title>Step2a_edta</title>
<polygon fill="none" stroke="black" points="473.63,-520 248.79,-520 248.79,-440 473.63,-440 473.63,-520"/>
<text text-anchor="middle" x="361.21" y="-498" font-family="Times,serif" font-size="20.00">STEP 2a: EDTA &#45; get cds</text>
<text text-anchor="middle" x="361.21" y="-474" font-family="Times,serif" font-size="20.00">		Script: edta.sh</text>
<text text-anchor="middle" x="361.21" y="-450" font-family="Times,serif" font-size="20.00">		Output: genome_cds.fasta</text>
</g>
<!-- Input_fasta&#45;&gt;Step2a_edta -->
<g id="edge3" class="edge">
<title>Input_fasta&#45;&gt;Step2a_edta</title>
<path fill="none" stroke="black" d="M905.55,-577.56C886.2,-569.76 862.36,-561.17 840.21,-556 687.92,-520.49 643.53,-550.77 490.21,-520 488.27,-519.61 486.32,-519.21 484.36,-518.78"/>
<polygon fill="black" stroke="black" points="485.33,-515.19 474.81,-516.4 483.79,-522.02 485.33,-515.19"/>
</g>
<!-- Step3a_mn -->
<g id="node11" class="node">
<title>Step3a_mn</title>
<polygon fill="none" stroke="black" points="1732.85,-520 1413.57,-520 1413.57,-440 1732.85,-440 1732.85,-520"/>
<text text-anchor="middle" x="1573.21" y="-498" font-family="Times,serif" font-size="20.00">STEP 3a: meth_nanopore &#45; minimap2</text>
<text text-anchor="middle" x="1573.21" y="-474" font-family="Times,serif" font-size="20.00">		Script: meth_bed_nanopore.sh</text>
<text text-anchor="middle" x="1573.21" y="-450" font-family="Times,serif" font-size="20.00">		Output: genome.sam</text>
</g>
<!-- Input_fasta&#45;&gt;Step3a_mn -->
<g id="edge7" class="edge">
<title>Input_fasta&#45;&gt;Step3a_mn</title>
<path fill="none" stroke="black" d="M1041.36,-581.14C1131.99,-567.66 1271.82,-545.76 1402.55,-520.29"/>
<polygon fill="black" stroke="black" points="1403,-523.57 1412.14,-518.21 1401.66,-516.7 1403,-523.57"/>
</g>
<!-- Step4b_mp -->
<g id="node16" class="node">
<title>Step4b_mp</title>
<polygon fill="none" stroke="black" points="875.16,-520 499.25,-520 499.25,-440 875.16,-440 875.16,-520"/>
<text text-anchor="middle" x="687.21" y="-498" font-family="Times,serif" font-size="20.00">STEP 4b: meth_pacbio &#45; ccsmeth align reads</text>
<text text-anchor="middle" x="687.21" y="-474" font-family="Times,serif" font-size="20.00">		Script: ccsmeth.sh</text>
<text text-anchor="middle" x="687.21" y="-450" font-family="Times,serif" font-size="20.00">		Output: genome.hifi.pbmm2.bam</text>
</g>
<!-- Input_fasta&#45;&gt;Step4b_mp -->
<g id="edge14" class="edge">
<title>Input_fasta&#45;&gt;Step4b_mp</title>
<path fill="none" stroke="black" d="M905.74,-577.56C873.99,-563.53 827.95,-543.19 786.31,-524.79"/>
<polygon fill="black" stroke="black" points="787.95,-521.24 777.38,-520.4 785.12,-527.65 787.95,-521.24"/>
</g>
<!-- Step4c_mp -->
<g id="node17" class="node">
<title>Step4c_mp</title>
<polygon fill="none" stroke="black" points="913.61,-404 548.8,-404 548.8,-324 913.61,-324 913.61,-404"/>
<text text-anchor="middle" x="731.21" y="-382" font-family="Times,serif" font-size="20.00">STEP 4c: meth_pacbio &#45; ccsmeth call mods</text>
<text text-anchor="middle" x="731.21" y="-358" font-family="Times,serif" font-size="20.00">		Script: ccsmeth.sh</text>
<text text-anchor="middle" x="731.21" y="-334" font-family="Times,serif" font-size="20.00">		Output: genome.hifi.pbmm2.call_mods</text>
</g>
<!-- Input_fasta&#45;&gt;Step4c_mp -->
<g id="edge16" class="edge">
<title>Input_fasta&#45;&gt;Step4c_mp</title>
<path fill="none" stroke="black" d="M940.14,-577.71C929.36,-541.85 903.57,-460.99 884.21,-440 873.51,-428.4 860.64,-418.39 846.95,-409.79"/>
<polygon fill="black" stroke="black" points="849.23,-406.48 838.86,-404.35 845.64,-412.48 849.23,-406.48"/>
</g>
<!-- Step4d_mp -->
<g id="node18" class="node">
<title>Step4d_mp</title>
<polygon fill="none" stroke="black" points="1015.06,-288 571.35,-288 571.35,-208 1015.06,-208 1015.06,-288"/>
<text text-anchor="middle" x="793.21" y="-266" font-family="Times,serif" font-size="20.00">STEP 4d: meth_pacbio &#45; ccsmeth call freqb</text>
<text text-anchor="middle" x="793.21" y="-242" font-family="Times,serif" font-size="20.00">		Script: ccsmeth.sh</text>
<text text-anchor="middle" x="793.21" y="-218" font-family="Times,serif" font-size="20.00">		Output: genome.hifi.pbmm2.call_mods.modbam.freq</text>
</g>
<!-- Input_fasta&#45;&gt;Step4d_mp -->
<g id="edge18" class="edge">
<title>Input_fasta&#45;&gt;Step4d_mp</title>
<path fill="none" stroke="black" d="M948.81,-577.76C957.34,-532.19 974.36,-406.38 922.21,-324 915.15,-312.86 905.81,-303.19 895.36,-294.83"/>
<polygon fill="black" stroke="black" points="897.87,-291.59 887.76,-288.42 893.68,-297.2 897.87,-291.59"/>
</g>
<!-- Input_gff3 -->
<g id="node2" class="node">
<title>Input_gff3</title>
<polygon fill="none" stroke="black" points="449.74,-614 262.67,-614 262.67,-578 449.74,-578 449.74,-614"/>
<text text-anchor="middle" x="356.21" y="-590" font-family="Times,serif" font-size="20.00">INPUT: genome.gff3</text>
</g>
<!-- Input_gff3&#45;&gt;Step2a_edta -->
<g id="edge8" class="edge">
<title>Input_gff3&#45;&gt;Step2a_edta</title>
<path fill="none" stroke="black" d="M356.97,-577.69C357.51,-565.22 358.28,-547.72 359.01,-531.04"/>
<polygon fill="black" stroke="black" points="362.54,-531.39 359.49,-521.25 355.55,-531.08 362.54,-531.39"/>
</g>
<!-- Input_fastq -->
<g id="node3" class="node">
<title>Input_fastq</title>
<polygon fill="none" stroke="black" points="1711.73,-614 1434.68,-614 1434.68,-578 1711.73,-578 1711.73,-614"/>
<text text-anchor="middle" x="1573.21" y="-590" font-family="Times,serif" font-size="20.00">INPUT: genome_nanopore.fastq</text>
</g>
<!-- Input_fastq&#45;&gt;Step3a_mn -->
<g id="edge9" class="edge">
<title>Input_fastq&#45;&gt;Step3a_mn</title>
<path fill="none" stroke="black" d="M1573.21,-577.69C1573.21,-565.22 1573.21,-547.72 1573.21,-531.04"/>
<polygon fill="black" stroke="black" points="1576.71,-531.25 1573.21,-521.25 1569.71,-531.25 1576.71,-531.25"/>
</g>
<!-- Input_bam -->
<g id="node4" class="node">
<title>Input_bam</title>
<polygon fill="none" stroke="black" points="808.55,-708 489.86,-708 489.86,-672 808.55,-672 808.55,-708"/>
<text text-anchor="middle" x="649.21" y="-684" font-family="Times,serif" font-size="20.00">INPUT: genome_pacbio.subread.bam</text>
</g>
<!-- Step4a_mp -->
<g id="node15" class="node">
<title>Step4a_mp</title>
<polygon fill="none" stroke="black" points="831.04,-636 467.37,-636 467.37,-556 831.04,-556 831.04,-636"/>
<text text-anchor="middle" x="649.21" y="-614" font-family="Times,serif" font-size="20.00">STEP 4a: meth_pacbio &#45; ccsmeth call reads</text>
<text text-anchor="middle" x="649.21" y="-590" font-family="Times,serif" font-size="20.00">		Script: ccsmeth.sh</text>
<text text-anchor="middle" x="649.21" y="-566" font-family="Times,serif" font-size="20.00">		Output: genome.hifi.bam</text>
</g>
<!-- Input_bam&#45;&gt;Step4a_mp -->
<g id="edge13" class="edge">
<title>Input_bam&#45;&gt;Step4a_mp</title>
<path fill="none" stroke="black" d="M649.21,-671.7C649.21,-664.59 649.21,-655.96 649.21,-647.13"/>
<polygon fill="black" stroke="black" points="652.71,-647.35 649.21,-637.35 645.71,-647.35 652.71,-647.35"/>
</g>
<!-- Step1b_trf -->
<g id="node6" class="node">
<title>Step1b_trf</title>
<polygon fill="none" stroke="black" points="1331.02,-288 1033.39,-288 1033.39,-208 1331.02,-208 1331.02,-288"/>
<text text-anchor="middle" x="1182.21" y="-266" font-family="Times,serif" font-size="20.00">STEP 1b: TRF &#45; convert to bed file</text>
<text text-anchor="middle" x="1182.21" y="-242" font-family="Times,serif" font-size="20.00">		Script: trf.sh</text>
<text text-anchor="middle" x="1182.21" y="-218" font-family="Times,serif" font-size="20.00">		Output: genome_trf.bed</text>
</g>
<!-- Step1a_trf&#45;&gt;Step1b_trf -->
<g id="edge2" class="edge">
<title>Step1a_trf&#45;&gt;Step1b_trf</title>
<path fill="none" stroke="black" d="M1182.21,-439.72C1182.21,-400.86 1182.21,-341.22 1182.21,-298.99"/>
<polygon fill="black" stroke="black" points="1185.71,-299.12 1182.21,-289.12 1178.71,-299.12 1185.71,-299.12"/>
</g>
<!-- Step5_cn -->
<g id="node19" class="node">
<title>Step5_cn</title>
<polygon fill="none" stroke="black" points="1355.15,-56 1009.26,-56 1009.26,0 1355.15,0 1355.15,-56"/>
<text text-anchor="middle" x="1182.21" y="-34" font-family="Times,serif" font-size="20.00">STEP 5: centromere_nanopore</text>
<text text-anchor="middle" x="1182.21" y="-10" font-family="Times,serif" font-size="20.00">		Script: centromere_pipeline_nanopore.sh</text>
</g>
<!-- Step1b_trf&#45;&gt;Step5_cn -->
<g id="edge20" class="edge">
<title>Step1b_trf&#45;&gt;Step5_cn</title>
<path fill="none" stroke="red" d="M1182.21,-207.52C1182.21,-167.77 1182.21,-106.83 1182.21,-67.45"/>
<polygon fill="red" stroke="red" points="1185.71,-67.45 1182.21,-57.45 1178.71,-67.45 1185.71,-67.45"/>
</g>
<!-- Step6_cp -->
<g id="node20" class="node">
<title>Step6_cp</title>
<polygon fill="none" stroke="black" points="955.6,-160 630.81,-160 630.81,-104 955.6,-104 955.6,-160"/>
<text text-anchor="middle" x="793.21" y="-138" font-family="Times,serif" font-size="20.00">STEP 6: centromere_pacbio</text>
<text text-anchor="middle" x="793.21" y="-114" font-family="Times,serif" font-size="20.00">		Script: centromere_pipeline_pacbio.sh</text>
</g>
<!-- Step1b_trf&#45;&gt;Step6_cp -->
<g id="edge23" class="edge">
<title>Step1b_trf&#45;&gt;Step6_cp</title>
<path fill="none" stroke="blue" d="M1047.52,-207.53C998.23,-193.08 943.27,-176.98 897.08,-163.44"/>
<polygon fill="blue" stroke="blue" points="898.34,-159.87 887.76,-160.42 896.37,-166.59 898.34,-159.87"/>
</g>
<!-- Step2c_edta -->
<g id="node9" class="node">
<title>Step2c_edta</title>
<polygon fill="none" stroke="black" points="530.94,-404 139.47,-404 139.47,-324 530.94,-324 530.94,-404"/>
<text text-anchor="middle" x="335.21" y="-382" font-family="Times,serif" font-size="20.00">STEP 2c: EDTA &#45; annotate TEs</text>
<text text-anchor="middle" x="335.21" y="-358" font-family="Times,serif" font-size="20.00">		Script: edta.sh</text>
<text text-anchor="middle" x="335.21" y="-334" font-family="Times,serif" font-size="20.00">		Output: genome.fasta.mod.EDTA.TEanno.gffs</text>
</g>
<!-- Step2a_edta&#45;&gt;Step2c_edta -->
<g id="edge4" class="edge">
<title>Step2a_edta&#45;&gt;Step2c_edta</title>
<path fill="none" stroke="black" d="M352.26,-439.77C350.44,-431.8 348.51,-423.31 346.62,-415.02"/>
<polygon fill="black" stroke="black" points="349.81,-414.28 344.17,-405.3 342.98,-415.83 349.81,-414.28"/>
</g>
<!-- Step2b_edta -->
<g id="node8" class="node">
<title>Step2b_edta</title>
<polygon fill="none" stroke="black" points="230.41,-520 0,-520 0,-440 230.41,-440 230.41,-520"/>
<text text-anchor="middle" x="115.21" y="-498" font-family="Times,serif" font-size="20.00">STEP 2b: EDTA &#45; gff2bed</text>
<text text-anchor="middle" x="115.21" y="-474" font-family="Times,serif" font-size="20.00">		Script: edta.sh</text>
<text text-anchor="middle" x="115.21" y="-450" font-family="Times,serif" font-size="20.00">		Output: genome.bed</text>
</g>
<!-- Step2b_edta&#45;&gt;Step2c_edta -->
<g id="edge5" class="edge">
<title>Step2b_edta&#45;&gt;Step2c_edta</title>
<path fill="none" stroke="black" d="M191.23,-439.61C210.03,-429.86 230.31,-419.36 249.54,-409.39"/>
<polygon fill="black" stroke="black" points="250.92,-412.1 258.18,-404.39 247.7,-405.89 250.92,-412.1"/>
</g>
<!-- Step2d_edta -->
<g id="node10" class="node">
<title>Step2d_edta</title>
<polygon fill="none" stroke="black" points="553.52,-288 270.9,-288 270.9,-208 553.52,-208 553.52,-288"/>
<text text-anchor="middle" x="412.21" y="-266" font-family="Times,serif" font-size="20.00">STEP 2d: EDTA &#45; convert to bed</text>
<text text-anchor="middle" x="412.21" y="-242" font-family="Times,serif" font-size="20.00">		Script: edta.sh</text>
<text text-anchor="middle" x="412.21" y="-218" font-family="Times,serif" font-size="20.00">		Output: genome_edta.bed</text>
</g>
<!-- Step2c_edta&#45;&gt;Step2d_edta -->
<g id="edge6" class="edge">
<title>Step2c_edta&#45;&gt;Step2d_edta</title>
<path fill="none" stroke="black" d="M361.71,-323.77C367.45,-315.26 373.6,-306.16 379.55,-297.35"/>
<polygon fill="black" stroke="black" points="382.96,-299.55 385.66,-289.3 377.16,-295.63 382.96,-299.55"/>
</g>
<!-- Step2d_edta&#45;&gt;Step5_cn -->
<g id="edge21" class="edge">
<title>Step2d_edta&#45;&gt;Step5_cn</title>
<path fill="none" stroke="red" d="M451.67,-207.74C491.19,-171.07 555.56,-118.15 622.21,-92 688.78,-65.88 861.94,-49.05 998.24,-39.41"/>
<polygon fill="red" stroke="red" points="998.08,-42.86 1007.82,-38.67 997.6,-35.88 998.08,-42.86"/>
</g>
<!-- Step2d_edta&#45;&gt;Step6_cp -->
<g id="edge24" class="edge">
<title>Step2d_edta&#45;&gt;Step6_cp</title>
<path fill="none" stroke="blue" d="M544.13,-207.53C592.3,-193.11 646.01,-177.04 691.18,-163.53"/>
<polygon fill="blue" stroke="blue" points="692,-166.64 700.58,-160.42 689.99,-159.93 692,-166.64"/>
</g>
<!-- Step3b_mn -->
<g id="node12" class="node">
<title>Step3b_mn</title>
<polygon fill="none" stroke="black" points="1737.41,-404 1387,-404 1387,-324 1737.41,-324 1737.41,-404"/>
<text text-anchor="middle" x="1562.21" y="-382" font-family="Times,serif" font-size="20.00">STEP 3b: meth_nanopore &#45; samtools_sort</text>
<text text-anchor="middle" x="1562.21" y="-358" font-family="Times,serif" font-size="20.00">		Script: meth_bed_nanopore.sh</text>
<text text-anchor="middle" x="1562.21" y="-334" font-family="Times,serif" font-size="20.00">		Output: genome_sorted.bam</text>
</g>
<!-- Step3a_mn&#45;&gt;Step3b_mn -->
<g id="edge10" class="edge">
<title>Step3a_mn&#45;&gt;Step3b_mn</title>
<path fill="none" stroke="black" d="M1569.42,-439.77C1568.65,-431.8 1567.83,-423.31 1567.03,-415.02"/>
<polygon fill="black" stroke="black" points="1570.44,-414.92 1566,-405.3 1563.48,-415.59 1570.44,-414.92"/>
</g>
<!-- Step3c_mn -->
<g id="node13" class="node">
<title>Step3c_mn</title>
<polygon fill="none" stroke="black" points="1734.07,-288 1370.34,-288 1370.34,-208 1734.07,-208 1734.07,-288"/>
<text text-anchor="middle" x="1552.21" y="-266" font-family="Times,serif" font-size="20.00">STEP 3c: meth_nanopore &#45; samtools_index</text>
<text text-anchor="middle" x="1552.21" y="-242" font-family="Times,serif" font-size="20.00">		Script: meth_bed_nanopore.sh</text>
<text text-anchor="middle" x="1552.21" y="-218" font-family="Times,serif" font-size="20.00">		Output: genome_sorted.bam.bai</text>
</g>
<!-- Step3b_mn&#45;&gt;Step3c_mn -->
<g id="edge11" class="edge">
<title>Step3b_mn&#45;&gt;Step3c_mn</title>
<path fill="none" stroke="black" d="M1558.77,-323.77C1558.07,-315.8 1557.32,-307.31 1556.6,-299.02"/>
<polygon fill="black" stroke="black" points="1560.02,-298.96 1555.65,-289.3 1553.04,-299.57 1560.02,-298.96"/>
</g>
<!-- Step3d_mn -->
<g id="node14" class="node">
<title>Step3d_mn</title>
<polygon fill="none" stroke="black" points="1642.29,-172 1294.12,-172 1294.12,-92 1642.29,-92 1642.29,-172"/>
<text text-anchor="middle" x="1468.21" y="-150" font-family="Times,serif" font-size="20.00">STEP 3d: meth_nanopore &#45; modbam2bed</text>
<text text-anchor="middle" x="1468.21" y="-126" font-family="Times,serif" font-size="20.00">		Script: meth_bed_nanopore.sh</text>
<text text-anchor="middle" x="1468.21" y="-102" font-family="Times,serif" font-size="20.00">		Output: genome_methyl.bed</text>
</g>
<!-- Step3c_mn&#45;&gt;Step3d_mn -->
<g id="edge12" class="edge">
<title>Step3c_mn&#45;&gt;Step3d_mn</title>
<path fill="none" stroke="black" d="M1523.3,-207.77C1516.96,-199.17 1510.19,-189.97 1503.63,-181.07"/>
<polygon fill="black" stroke="black" points="1505.92,-179.28 1497.17,-173.3 1500.28,-183.43 1505.92,-179.28"/>
</g>
<!-- Step3d_mn&#45;&gt;Step5_cn -->
<g id="edge22" class="edge">
<title>Step3d_mn&#45;&gt;Step5_cn</title>
<path fill="none" stroke="red" d="M1357.63,-91.56C1328.37,-81.13 1297.2,-70.01 1269.38,-60.09"/>
<polygon fill="red" stroke="red" points="1270.88,-56.55 1260.29,-56.49 1268.53,-63.15 1270.88,-56.55"/>
</g>
<!-- Step4a_mp&#45;&gt;Step4b_mp -->
<g id="edge15" class="edge">
<title>Step4a_mp&#45;&gt;Step4b_mp</title>
<path fill="none" stroke="black" d="M662.28,-555.77C665,-547.62 667.9,-538.93 670.72,-530.46"/>
<polygon fill="black" stroke="black" points="674.26,-531.9 674.11,-521.3 667.62,-529.68 674.26,-531.9"/>
</g>
<!-- Step4b_mp&#45;&gt;Step4c_mp -->
<g id="edge17" class="edge">
<title>Step4b_mp&#45;&gt;Step4c_mp</title>
<path fill="none" stroke="black" d="M702.35,-439.77C705.5,-431.62 708.85,-422.93 712.12,-414.46"/>
<polygon fill="black" stroke="black" points="715.7,-415.89 716.04,-405.3 709.17,-413.37 715.7,-415.89"/>
</g>
<!-- Step4c_mp&#45;&gt;Step4d_mp -->
<g id="edge19" class="edge">
<title>Step4c_mp&#45;&gt;Step4d_mp</title>
<path fill="none" stroke="black" d="M752.54,-323.77C757.07,-315.44 761.91,-306.55 766.61,-297.91"/>
<polygon fill="black" stroke="black" points="770.13,-299.76 771.83,-289.3 763.98,-296.42 770.13,-299.76"/>
</g>
<!-- Step4d_mp&#45;&gt;Step6_cp -->
<g id="edge25" class="edge">
<title>Step4d_mp&#45;&gt;Step6_cp</title>
<path fill="none" stroke="blue" d="M793.21,-207.77C793.21,-195.96 793.21,-183.01 793.21,-171.27"/>
<polygon fill="blue" stroke="blue" points="796.71,-171.44 793.21,-161.44 789.71,-171.44 796.71,-171.44"/>
</g>
</g>
</svg>
