<?xml version="1.0" encoding="UTF-8" standalone="no"?>
<!DOCTYPE svg PUBLIC "-//W3C//DTD SVG 1.1//EN"
 "http://www.w3.org/Graphics/SVG/1.1/DTD/svg11.dtd">
<!-- Generated by graphviz version 8.0.5 (0)
 -->
<!-- Title: Pacbio Nanopore Pipeline Pages: 1 -->
<svg width="1121pt" height="624pt"
 viewBox="0.00 0.00 1121.24 624.00" xmlns="http://www.w3.org/2000/svg" xmlns:xlink="http://www.w3.org/1999/xlink">
<g id="graph0" class="graph" transform="scale(1 1) rotate(0) translate(4 620)">
<title>Pacbio Nanopore Pipeline</title>
<polygon fill="white" stroke="none" points="-4,4 -4,-620 1117.24,-620 1117.24,4 -4,4"/>
<text text-anchor="middle" x="556.62" y="-576" font-family="Times,serif" font-size="40.00">Pacbio Nanopore Pipeline</text>
<!-- Step1_trf -->
<g id="node1" class="node">
<title>Step1_trf</title>
<polygon fill="none" stroke="black" points="468.38,-560 260.21,-560 260.21,-432 468.38,-432 468.38,-560"/>
<text text-anchor="middle" x="364.29" y="-538" font-family="Times,serif" font-size="20.00">STEP 1: TRF</text>
<text text-anchor="middle" x="364.29" y="-490" font-family="Times,serif" font-size="20.00">		Input: genome.fasta</text>
<text text-anchor="middle" x="364.29" y="-466" font-family="Times,serif" font-size="20.00">		Script: trf.sh</text>
<text text-anchor="middle" x="364.29" y="-442" font-family="Times,serif" font-size="20.00">		Output: genome_trf.bed</text>
</g>
<!-- Step5_cn -->
<g id="node5" class="node">
<title>Step5_cn</title>
<polygon fill="none" stroke="black" points="1113.24,-476 767.35,-476 767.35,-372 1113.24,-372 1113.24,-476"/>
<text text-anchor="middle" x="940.29" y="-454" font-family="Times,serif" font-size="20.00">STEP 5: centromere_nanopore</text>
<text text-anchor="middle" x="940.29" y="-406" font-family="Times,serif" font-size="20.00">		Input: Output from Steps 1, 2, and 3</text>
<text text-anchor="middle" x="940.29" y="-382" font-family="Times,serif" font-size="20.00">		Script: centromere_pipeline_nanopore.sh</text>
</g>
<!-- Step1_trf&#45;&gt;Step5_cn -->
<g id="edge1" class="edge">
<title>Step1_trf&#45;&gt;Step5_cn</title>
<path fill="none" stroke="red" d="M468.6,-482.96C548.6,-472.96 661.03,-458.91 756.07,-447.03"/>
<polygon fill="red" stroke="red" points="756.49,-450.38 765.98,-445.66 755.62,-443.43 756.49,-450.38"/>
</g>
<!-- Step6_cp -->
<g id="node6" class="node">
<title>Step6_cp</title>
<polygon fill="none" stroke="black" points="1102.69,-242 777.9,-242 777.9,-138 1102.69,-138 1102.69,-242"/>
<text text-anchor="middle" x="940.29" y="-220" font-family="Times,serif" font-size="20.00">STEP 6: centromere_pacbio</text>
<text text-anchor="middle" x="940.29" y="-172" font-family="Times,serif" font-size="20.00">		Input: Output from Steps 1, 2, and 4</text>
<text text-anchor="middle" x="940.29" y="-148" font-family="Times,serif" font-size="20.00">		Script: centromere_pipeline_pacbio.sh</text>
</g>
<!-- Step1_trf&#45;&gt;Step6_cp -->
<g id="edge4" class="edge">
<title>Step1_trf&#45;&gt;Step6_cp</title>
<path fill="none" stroke="blue" d="M468.73,-441.34C482.86,-433.92 497.15,-426.38 510.73,-419.2 620.74,-361 746.29,-293.94 833.13,-247.45"/>
<polygon fill="blue" stroke="blue" points="834.56,-250.12 841.73,-242.31 831.26,-243.95 834.56,-250.12"/>
</g>
<!-- Step2_edta -->
<g id="node2" class="node">
<title>Step2_edta</title>
<polygon fill="none" stroke="black" points="507.53,-416 221.06,-416 221.06,-288 507.53,-288 507.53,-416"/>
<text text-anchor="middle" x="364.29" y="-394" font-family="Times,serif" font-size="20.00">STEP 2: EDTA</text>
<text text-anchor="middle" x="364.29" y="-346" font-family="Times,serif" font-size="20.00">		Input: genome.fasta, genome.gff3</text>
<text text-anchor="middle" x="364.29" y="-322" font-family="Times,serif" font-size="20.00">		Script: edta.sh</text>
<text text-anchor="middle" x="364.29" y="-298" font-family="Times,serif" font-size="20.00">		Output: genome_edta.bed</text>
</g>
<!-- Step2_edta&#45;&gt;Step5_cn -->
<g id="edge2" class="edge">
<title>Step2_edta&#45;&gt;Step5_cn</title>
<path fill="none" stroke="red" d="M507.79,-369.94C582.96,-379.33 675.87,-390.95 756.28,-401"/>
<polygon fill="red" stroke="red" points="755.68,-404.58 766.04,-402.34 756.55,-397.63 755.68,-404.58"/>
</g>
<!-- Step2_edta&#45;&gt;Step6_cp -->
<g id="edge5" class="edge">
<title>Step2_edta&#45;&gt;Step6_cp</title>
<path fill="none" stroke="blue" d="M507.84,-325.61C571.99,-312.54 648.19,-295.26 715.68,-275.2 743.94,-266.8 773.71,-256.55 802,-246.11"/>
<polygon fill="blue" stroke="blue" points="802.79,-249.17 810.95,-242.41 800.35,-242.61 802.79,-249.17"/>
</g>
<!-- Step3_mn -->
<g id="node3" class="node">
<title>Step3_mn</title>
<polygon fill="none" stroke="black" points="712.48,-272 16.1,-272 16.1,-144 712.48,-144 712.48,-272"/>
<text text-anchor="middle" x="364.29" y="-250" font-family="Times,serif" font-size="20.00">STEP 3: meth_nanopore</text>
<text text-anchor="middle" x="364.29" y="-202" font-family="Times,serif" font-size="20.00">		Input: genome.fasta, genome_nanopore.fastq</text>
<text text-anchor="middle" x="364.29" y="-178" font-family="Times,serif" font-size="20.00">		Script: meth_bed_nanopore.sh</text>
<text text-anchor="middle" x="364.29" y="-154" font-family="Times,serif" font-size="20.00">		Output: genome_meth.bed, fenome_nano_sorted.bam, genome_nano_sorted.bam.bai</text>
</g>
<!-- Step3_mn&#45;&gt;Step5_cn -->
<g id="edge3" class="edge">
<title>Step3_mn&#45;&gt;Step5_cn</title>
<path fill="none" stroke="red" d="M535.94,-272.37C616.86,-302.71 712.52,-338.58 790.47,-367.82"/>
<polygon fill="red" stroke="red" points="788.78,-371.3 799.37,-371.53 791.24,-364.74 788.78,-371.3"/>
</g>
<!-- Step4_mp -->
<g id="node4" class="node">
<title>Step4_mp</title>
<polygon fill="none" stroke="black" points="728.59,-128 0,-128 0,0 728.59,0 728.59,-128"/>
<text text-anchor="middle" x="364.29" y="-106" font-family="Times,serif" font-size="20.00">STEP 4: meth_pacbio</text>
<text text-anchor="middle" x="364.29" y="-58" font-family="Times,serif" font-size="20.00">		Input: genome.fasta, genome_pacbio.subreab.bam</text>
<text text-anchor="middle" x="364.29" y="-34" font-family="Times,serif" font-size="20.00">		Script: ccsmeth.sh</text>
<text text-anchor="middle" x="364.29" y="-10" font-family="Times,serif" font-size="20.00">		Output: genome_meth.bed, genome_pacbio_sorted.bam, genome_pacbio_sorted.bam.bai</text>
</g>
<!-- Step4_mp&#45;&gt;Step6_cp -->
<g id="edge6" class="edge">
<title>Step4_mp&#45;&gt;Step6_cp</title>
<path fill="none" stroke="blue" d="M659.08,-128.42C678.23,-132.61 697.23,-136.76 715.68,-140.8 732.24,-144.42 749.47,-148.19 766.71,-151.97"/>
<polygon fill="blue" stroke="blue" points="765.92,-155.6 776.44,-154.32 767.42,-148.76 765.92,-155.6"/>
</g>
</g>
</svg>
